<?xml version='1.0' encoding='utf-8'?>
<svg xmlns="http://www.w3.org/2000/svg" version="1.1" id="Contours" x="0px" y="0px" width="267.092804" height="259.408661" viewBox="0.000000 0.000000 267.092804 259.408661" stroke="black" fill="none" stroke-linecap="round" stroke-linejoin="round"> <desc> </desc> <path d="M221.4 113.3 C222.7 106.2 224.1 99.6 225.4 93.0 C225.6 92.1 226.1 91.2 226.5 90.3 C226.8 91.1 227.1 91.9 227.4 92.7 C228.1 94.7 228.7 96.7 229.5 98.7 C229.5 98.8 230.5 98.7 230.8 98.4 C231.1 97.9 231.3 97.3 231.4 96.7 C231.8 93.6 228.1 87.7 236.1 90.1 C236.5 87.9 236.9 85.8 237.1 83.6 C237.2 82.7 236.6 81.8 236.4 80.9 C236.2 79.4 236.0 77.9 235.8 76.4 C235.3 77.9 234.8 79.4 234.4 80.8 C234.2 81.6 234.2 82.4 234.0 83.2 C233.5 82.5 232.7 81.9 232.5 81.1 C231.7 78.1 230.8 75.7 233.0 72.2 C234.6 69.6 232.8 64.8 232.4 61.0 C232.3 59.9 231.8 58.9 231.4 57.8 C232.8 58.5 234.8 58.9 235.4 60.0 C236.8 62.4 237.5 65.1 238.4 67.7 C241.4 77.1 242.8 87.0 247.3 96.0 C249.4 100.2 250.2 105.4 250.2 110.2 C250.3 118.4 255.9 123.7 259.0 130.3 C263.2 139.2 267.1 147.9 264.5 158.2 C263.7 161.5 264.4 165.2 264.4 168.7 C264.3 176.5 259.0 184.0 251.6 186.6 C244.4 189.2 237.1 191.8 229.8 194.3 C227.0 195.3 216.1 191.3 215.6 188.8 C215.2 186.9 215.5 184.4 216.5 182.8 C222.7 172.9 222.6 170.1 214.3 161.8 C212.7 160.2 210.3 159.3 208.5 157.9 C206.4 156.1 204.2 154.2 202.5 152.0 C200.8 149.8 199.6 147.0 204.6 147.2 C205.3 147.2 206.0 146.0 206.7 145.5 C208.3 144.4 210.1 142.2 211.3 142.5 C214.3 143.2 213.9 141.2 214.4 139.9 C215.3 137.4 215.6 134.6 216.9 132.4 C220.6 126.7 221.4 120.4 221.4 113.3 M235.9 94.3 C235.9 93.7 236.0 93.0 236.0 92.4 C235.8 93.0 235.6 93.7 234.9 94.3 C234.9 94.6 234.9 94.9 234.8 95.2 C235.0 94.9 235.2 94.6 235.9 94.3 M239.4 104.8 C239.7 104.8 240.0 104.8 240.3 104.9 C240.0 104.7 239.7 104.5 239.4 103.8 C238.9 103.3 238.3 102.9 237.8 102.4 C237.6 102.7 237.4 103.2 237.4 103.2 C238.1 103.6 238.7 103.9 239.4 104.8 M230.9 103.3 C230.5 104.2 230.0 105.1 229.6 106.0 C230.2 106.1 230.8 106.2 231.4 106.3 C231.6 105.3 231.7 104.3 230.9 103.3 M239.9 117.3 C240.6 116.0 241.3 114.6 241.9 113.3 C241.2 114.1 240.3 114.8 239.6 115.6 C239.3 116.1 239.1 116.7 239.9 117.3 M238.9 93.3 C239.0 93.1 239.2 92.9 239.3 92.7 C239.0 92.7 238.7 92.8 238.9 93.3 M243.9 101.3 C244.0 101.1 244.2 100.9 244.3 100.7 C244.0 100.7 243.7 100.8 243.9 101.3 M242.9 99.3 C243.0 99.1 243.2 98.9 243.3 98.7 C243.0 98.7 242.7 98.8 242.9 99.3 " fill="#000000" stroke="none"/> <path d="M227.2 86.5 C227.1 86.8 226.8 86.9 226.5 86.9 C226.6 86.7 226.8 86.5 227.2 86.5 " fill="#000000" stroke="none"/> <path d="M157.7 5.5 C157.9 5.6 158.0 5.9 158.0 6.2 C157.8 6.1 157.6 5.9 157.7 5.5 " fill="#000000" stroke="none"/> <path d="M218.7 53.5 C218.9 53.6 219.0 53.9 219.0 54.2 C218.8 54.1 218.6 53.9 218.7 53.5 " fill="#000000" stroke="none"/> <path d="M75.4 153.5 C75.7 153.5 76.0 153.7 76.3 153.9 C76.0 153.8 75.7 153.8 75.4 153.5 " fill="#000000" stroke="none"/> <path d="M220.7 55.3 C220.6 55.0 220.8 54.7 221.0 54.4 C221.0 54.7 220.9 55.0 220.7 55.3 " fill="#000000" stroke="none"/> <path d="M220.2 55.3 C220.2 55.6 220.0 55.9 219.8 56.2 C219.9 55.9 219.9 55.6 220.2 55.3 " fill="#000000" stroke="none"/> <path d="M226.7 85.0 C226.7 84.8 227.0 84.7 227.3 84.7 C227.2 84.9 227.0 85.1 226.7 85.0 " fill="#000000" stroke="none"/> <path d="M44.7 133.0 C44.7 132.8 45.0 132.7 45.3 132.7 C45.2 132.9 45.0 133.1 44.7 133.0 " fill="#000000" stroke="none"/> <path d="M118.7 109.5 C118.9 109.6 119.0 109.9 119.0 110.2 C118.8 110.1 118.6 109.9 118.7 109.5 " fill="#000000" stroke="none"/> <path d="M119.7 97.3 C119.6 97.0 119.8 96.7 120.0 96.4 C120.0 96.7 119.9 97.0 119.7 97.3 " fill="#000000" stroke="none"/> <path d="M75.4 153.0 C72.6 155.6 69.9 158.0 67.1 160.2 C66.8 160.4 65.5 159.9 65.5 159.7 C65.7 155.0 70.8 151.5 75.4 153.0 " fill="#000000" stroke="none"/> <path d="M216.7 49.5 C217.4 50.1 217.9 50.9 218.4 51.6 C217.8 51.5 217.2 51.6 216.8 51.2 C216.5 51.0 216.5 50.3 216.7 49.5 " fill="#000000" stroke="none"/> <path d="M119.2 97.3 C119.7 100.0 120.1 102.7 120.4 105.4 C120.4 106.0 119.8 106.7 119.5 107.3 C118.9 106.9 117.6 106.4 117.7 106.0 C118.0 103.1 118.5 100.2 119.2 97.3 " fill="#000000" stroke="none"/> <path d="M160.7 6.5 C161.4 6.3 161.9 6.2 162.3 6.3 C163.1 6.6 163.7 7.0 164.4 7.4 C163.6 7.4 162.9 7.4 162.1 7.3 C161.5 7.2 161.0 7.0 160.7 6.5 " fill="#000000" stroke="none"/> <path d="M14.4 48.3 C20.3 40.8 24.1 39.7 32.1 42.3 C41.9 45.5 45.7 58.6 39.7 66.7 C35.4 72.3 29.5 74.0 23.4 73.9 C20.7 73.9 16.7 70.5 15.8 67.8 C13.9 61.8 11.9 55.3 14.4 48.3 " fill="#000000" stroke="none"/> <path d="M46.2 67.0 C47.0 66.2 47.5 65.5 48.2 65.1 C49.5 64.2 50.9 63.5 52.3 62.7 C51.3 64.1 50.5 65.6 49.3 66.8 C48.5 67.7 47.3 68.2 46.3 68.9 C46.2 68.4 46.0 67.8 46.2 67.0 " fill="#000000" stroke="none"/> <path d="M213.2 40.5 C212.5 39.7 212.0 39.2 211.6 38.6 C212.4 38.9 213.4 38.9 213.9 39.4 C215.2 40.5 216.3 41.9 217.4 43.1 C216.8 43.4 215.7 44.0 215.5 43.8 C214.7 42.9 214.1 41.8 213.2 40.5 " fill="#000000" stroke="none"/> <path d="M73.4 141.3 C67.1 143.6 64.3 143.0 61.5 138.2 C59.2 134.2 55.2 131.2 55.2 125.8 C55.1 122.0 57.6 116.2 61.5 114.7 C64.1 113.7 68.9 116.9 70.4 120.4 C71.8 123.5 73.4 126.5 75.1 129.4 C77.3 133.2 77.0 138.1 73.4 141.3 " fill="#000000" stroke="none"/> <path d="M224.2 70.5 C222.4 67.6 220.9 65.0 219.5 62.3 C219.3 62.0 220.1 61.3 220.5 60.7 C220.8 61.1 221.3 61.5 221.5 61.9 C222.8 64.8 224.1 67.8 225.4 70.7 C225.4 70.8 225.2 71.1 225.1 71.1 C224.9 71.0 224.6 70.9 224.2 70.5 " fill="#000000" stroke="none"/> <path d="M175.2 10.5 C174.0 10.0 173.2 9.6 172.3 9.3 C171.5 9.0 170.6 8.8 169.7 8.5 C170.8 8.2 171.9 7.7 173.1 7.5 C173.8 7.4 174.5 8.0 175.2 8.3 C176.9 9.2 178.6 10.1 180.2 11.0 C178.6 10.9 177.0 10.9 175.2 10.5 " fill="#000000" stroke="none"/> <path d="M24.2 80.0 C25.3 79.4 26.2 78.9 27.1 78.5 C26.9 79.3 26.7 80.1 26.4 80.9 C26.2 81.5 25.9 82.1 25.6 82.6 C25.1 83.5 24.5 84.4 23.9 85.3 C23.7 84.2 23.5 83.1 23.4 82.1 C23.4 81.5 23.7 80.9 24.2 80.0 " fill="#000000" stroke="none"/> <path d="M184.4 151.3 C184.8 150.4 185.1 148.8 185.6 148.7 C187.7 148.3 189.9 148.3 192.1 148.3 C192.9 148.4 193.6 148.9 194.4 149.2 C193.8 149.9 193.3 151.1 192.6 151.2 C189.9 151.6 187.2 151.6 184.7 151.5 C184.9 151.0 185.0 150.7 185.0 150.4 C184.8 150.7 184.6 151.0 184.4 151.3 " fill="#000000" stroke="none"/> <path d="M40.4 161.3 C44.1 161.0 47.2 160.6 50.4 160.3 C51.3 160.2 52.2 160.4 53.0 160.4 C52.7 161.3 52.6 162.4 52.0 163.1 C48.9 167.5 41.1 168.7 36.1 165.5 C35.6 165.2 35.1 164.8 34.7 164.3 C33.6 163.1 32.6 161.9 31.5 160.7 C33.1 160.6 34.7 160.5 36.2 160.6 C37.5 160.7 38.7 161.1 40.4 161.3 " fill="#000000" stroke="none"/> <path d="M83.7 46.5 C89.7 41.3 96.8 39.4 103.4 42.2 C110.4 45.2 116.7 50.2 116.4 59.4 C116.3 61.5 116.6 64.3 115.4 65.6 C110.7 70.4 111.4 76.2 111.4 82.0 C111.4 82.8 111.1 83.5 110.9 84.3 C110.4 83.8 109.9 83.4 109.5 82.9 C108.5 81.1 105.1 82.7 104.8 79.4 C104.7 78.4 103.8 77.5 104.5 76.3 C105.0 75.6 105.1 74.7 105.4 73.9 C104.5 73.7 103.6 73.3 102.8 73.5 C101.0 73.9 99.2 74.6 97.5 75.3 C97.1 75.5 96.5 76.1 96.5 76.5 C96.4 80.1 94.3 81.1 90.6 79.3 C85.1 76.7 82.3 72.7 81.9 66.4 C81.4 59.7 78.2 53.0 83.7 46.5 " fill="#000000" stroke="none"/> <path d="M136.4 14.3 C135.1 11.5 134.1 9.0 132.4 7.0 C131.1 5.4 129.0 4.4 127.1 3.3 C125.6 2.5 124.0 1.8 122.4 1.1 C124.2 0.8 125.9 0.0 127.6 0.1 C142.3 1.0 152.8 8.7 161.1 20.4 C164.9 25.6 169.8 30.0 173.7 35.2 C178.5 41.9 180.0 49.9 181.4 57.9 C182.9 65.8 184.6 73.6 186.1 81.5 C186.6 84.1 187.3 86.8 187.3 89.4 C187.5 96.1 186.9 102.8 187.6 109.4 C188.1 115.3 185.6 119.8 183.4 124.8 C181.6 129.0 178.6 133.4 178.7 137.7 C178.8 149.9 176.7 161.9 175.7 173.9 C175.0 181.8 177.2 189.8 177.2 197.8 C177.1 201.4 175.4 205.4 173.4 208.6 C169.0 216.0 163.1 222.6 165.1 232.5 C165.5 234.5 161.8 238.8 159.3 239.6 C152.0 241.8 144.3 243.7 136.7 244.0 C130.6 244.2 124.4 241.9 118.3 240.6 C114.0 239.7 109.7 238.9 105.4 237.8 C101.4 236.7 101.8 233.9 103.5 231.1 C104.4 229.6 105.7 228.1 107.2 227.4 C114.4 224.2 115.1 218.7 114.6 211.6 C114.2 205.5 115.8 199.2 116.2 192.9 C116.5 189.1 116.3 185.2 116.4 181.3 C116.5 179.6 116.8 177.8 117.1 176.1 C118.0 171.3 119.8 166.9 115.6 162.2 C113.4 159.7 113.7 155.1 112.3 151.7 C110.0 146.0 110.0 141.2 113.1 135.4 C116.0 130.1 116.7 123.6 118.4 117.6 C118.6 116.8 119.0 116.1 119.4 115.3 C120.0 116.2 120.6 117.1 121.1 118.0 C121.5 118.7 121.6 119.4 121.8 120.1 C122.1 119.6 122.6 119.0 122.8 118.4 C123.4 116.4 123.9 114.4 124.4 112.4 C124.6 111.8 124.4 110.9 124.7 110.5 C132.4 102.2 132.4 91.0 135.3 81.0 C137.7 72.7 139.2 64.1 140.2 55.6 C140.9 50.2 139.9 44.5 139.6 39.0 C139.2 33.8 138.9 28.6 138.3 23.5 C138.0 20.5 137.1 17.7 136.4 14.3 " fill="#000000" stroke="none"/> <path d="M6.2 237.0 C9.5 233.7 11.2 230.0 11.8 225.5 C12.6 219.5 15.4 213.5 15.1 207.6 C14.7 200.1 16.1 193.5 18.2 186.6 C20.4 179.4 21.1 171.7 22.4 164.3 C23.5 158.0 24.2 151.7 25.5 145.6 C26.6 140.1 26.4 135.1 24.6 129.7 C23.9 127.4 25.7 124.3 26.4 121.6 C27.3 118.5 28.3 115.4 29.4 112.4 C29.7 111.6 30.6 111.0 31.1 110.3 C31.9 111.0 33.2 111.6 33.3 112.4 C34.0 119.1 34.8 125.5 32.1 132.5 C28.3 142.2 28.8 153.0 29.5 163.4 C29.9 168.1 38.9 173.7 45.0 174.4 C50.7 175.0 55.2 172.8 59.5 169.7 C64.3 166.4 69.3 164.6 75.3 164.1 C81.2 163.5 86.5 160.4 90.4 155.5 C92.8 152.5 95.1 149.4 97.7 146.7 C98.5 145.8 100.2 145.6 101.6 145.3 C102.1 145.2 102.8 145.6 103.4 145.8 C102.9 146.2 102.5 146.8 102.0 147.2 C91.9 153.4 89.1 164.5 84.5 174.3 C83.1 177.1 82.5 180.2 81.4 183.0 C79.6 187.5 79.7 191.9 81.3 196.4 C81.6 197.2 81.1 199.1 81.0 199.1 C74.3 198.9 78.5 204.0 77.5 206.5 C77.0 207.6 77.3 209.1 77.4 210.5 C77.6 213.0 76.8 214.5 73.9 214.3 C71.0 214.2 69.1 215.1 69.3 218.7 C69.5 221.7 69.1 224.1 65.2 225.6 C62.9 226.6 62.2 231.1 60.4 233.8 C57.1 238.3 53.9 242.9 50.1 247.0 C46.0 251.3 41.6 255.3 35.4 256.9 C25.5 259.4 15.9 258.5 6.7 254.2 C1.2 251.7 0.0 247.8 2.7 242.5 C3.7 240.7 4.8 239.0 6.2 237.0 M30.4 246.8 C31.0 248.2 31.5 249.7 32.1 251.1 C32.5 249.5 33.3 247.9 33.3 246.2 C33.3 245.0 32.5 243.7 32.0 242.4 C31.3 243.7 30.6 245.0 30.4 246.8 M25.9 253.3 C25.6 252.0 25.2 250.6 24.8 249.3 C24.8 249.3 24.0 249.5 23.6 249.6 C24.0 250.9 24.5 252.1 25.9 253.3 M46.4 243.8 C46.6 242.7 46.8 241.5 47.0 240.4 C46.5 240.6 45.4 240.7 45.4 240.9 C45.5 242.0 45.7 243.2 46.4 243.8 " fill="#000000" stroke="none"/> </svg>